<?xml version="1.0" encoding="UTF-8" standalone="no"?>
<svg
   xmlns:dc="http://purl.org/dc/elements/1.1/"
   xmlns:cc="http://creativecommons.org/ns#"
   xmlns:rdf="http://www.w3.org/1999/02/22-rdf-syntax-ns#"
   xmlns:svg="http://www.w3.org/2000/svg"
   xmlns="http://www.w3.org/2000/svg"
   version="1.1"
   id="svg32935"
   viewBox="0 0 495.59634 638.58686"
   height="180.2234mm"
   width="139.8683mm">
  <defs
     id="defs32937" />
  <metadata
     id="metadata32940">
    <rdf:RDF>
      <cc:Work
         rdf:about="">
        <dc:format>image/svg+xml</dc:format>
        <dc:type
           rdf:resource="http://purl.org/dc/dcmitype/StillImage" />
        <dc:title></dc:title>
      </cc:Work>
    </rdf:RDF>
  </metadata>
  <g
     transform="translate(-607.75788,-456.72784)"
     id="layer1">
    <path
       id="path33526"
       d="m 611.34624,1089.2733 c -3.18591,-5.364 -3.58836,-34.7096 -3.58836,-261.7104 0,-227.00077 0.40245,-256.34638 3.58836,-261.71038 3.56667,-6.00471 3.98988,-6.04142 69.85602,-6.04142 l 66.26765,0 2.83531,19.89899 c 10.18943,71.51014 63.16498,116.76263 123.699,105.66466 44.42246,-8.14428 80.33728,-49.67138 86.94349,-100.53062 1.3028,-10.0305 2.72597,-19.76633 3.16233,-21.63513 0.61109,-2.61637 15.83558,-3.3979 66.20386,-3.3979 60.4411,0 65.7004,0.37759 69.2253,4.97095 3.4934,4.5523 3.815,26.73359 3.815,263.25306 0,246.76739 -0.189,258.48269 -4.2153,262.78079 -3.7945,4.0495 -14.846,4.4988 -110.64484,4.4988 l -106.42937,0 0,-55.5309 c 0,-46.85819 -0.56572,-56.19796 -3.62228,-59.80242 -4.52282,-5.3333 -39.97245,-6.14091 -44.3238,-1.00956 -1.97411,2.32792 -2.76611,19.45099 -2.76611,59.80238 l 0,56.5405 -108.20897,0 -108.20897,0 z m 84.99336,-52.5959 c 4.55491,-5.3714 5.25423,-52.5191 0.85612,-57.70558 -1.72261,-2.03141 -10.2448,-3.26196 -22.58999,-3.26196 -12.34519,0 -20.86732,1.23055 -22.58993,3.26196 -3.76769,4.44304 -3.76769,54.27208 0,58.71508 4.3513,5.1314 39.80098,4.3238 44.3238,-1.0095 z m 90.75498,1.0095 c 3.17,-3.7382 3.84975,-53.03601 0.80931,-58.68706 -1.37384,-2.55385 -7.78085,-3.29213 -23.59197,-2.71833 l -21.70574,0.78749 -0.65949,28.1452 c -0.43176,18.4197 0.26321,29.4565 2.01098,31.9399 3.44956,4.9017 39.0592,5.3415 43.13691,0.5328 z m 182.10281,0 c 4.14252,-4.885 3.7497,-54.91221 -0.46354,-59.03557 -2.06743,-2.02352 -10.57049,-2.87702 -23.62726,-2.3717 l -20.3976,0.78937 -0.65835,29.6811 c -0.48589,21.9162 0.11759,30.2611 2.30513,31.8983 4.72682,3.5368 39.69264,2.752 42.84162,-0.9615 z m 89.89891,0 c 4.1425,-4.885 3.7497,-54.91221 -0.4636,-59.03557 -2.0674,-2.02352 -10.5705,-2.87702 -23.6273,-2.3717 l -20.3976,0.78937 -0.6615,28.3583 c -0.3638,15.597 -0.1383,29.97 0.5039,31.9399 1.552,4.769 40.6357,5.0487 44.6461,0.3197 z M 697.70583,915.90744 c 1.20187,-2.24259 2.20138,-15.24257 2.22075,-28.88891 0.044,-30.99702 -0.95685,-32.2727 -25.32085,-32.2727 -24.41466,0 -25.35609,1.21644 -25.35609,32.75816 0,33.37735 1.05438,34.68352 26.97846,33.42061 13.97971,-0.68097 19.89411,-2.06265 21.47773,-5.01716 z m 87.6961,2.62259 c 3.97332,-2.50737 4.45876,-5.91906 4.45876,-31.32748 0,-28.10663 -0.0853,-28.55163 -5.91282,-31.16499 -3.252,-1.45783 -11.48285,-2.65087 -18.29073,-2.65087 -6.80784,0 -15.03869,1.19304 -18.29068,2.65087 -5.82756,2.61283 -5.91282,3.06136 -5.91282,31.12554 0,24.25042 0.59839,28.88516 4.03391,31.24489 5.29412,3.63623 34.20605,3.72489 39.91438,0.12231 z m 94.40676,-2.62259 c 1.20187,-2.24259 2.20133,-14.54696 2.2207,-27.34307 0.0484,-31.86001 -1.37383,-33.81854 -24.55875,-33.81854 -26.97035,0 -26.11814,-1.05711 -26.11814,32.39908 0,24.21371 0.60576,28.9297 4.03392,31.40551 6.22353,4.49413 41.72897,2.3818 44.42227,-2.64298 z m 88.53259,1.16503 c 2.77283,-3.2698 3.61397,-10.12292 3.58698,-29.22164 -0.0232,-13.72249 -0.88726,-26.53353 -1.92824,-28.46893 -2.54273,-4.72655 -31.93783,-7.37474 -40.10458,-3.61315 l -6.33899,2.91995 0,29.76914 c 0,34.22764 -1.63018,32.0707 24.61524,32.57087 12.24169,0.23377 17.48969,-0.79619 20.16959,-3.95624 z m 87.60832,1.62038 c 5.8317,-2.61443 5.9128,-3.04505 5.9128,-31.34546 0,-33.44503 0.6263,-32.60156 -24.2035,-32.60156 -24.8136,0 -24.2036,-0.81631 -24.2036,32.39908 0,24.26781 0.5982,28.90303 4.0339,31.26308 5.1727,3.55278 30.7492,3.74228 38.4604,0.28486 z M 697.19572,795.75892 c 3.76769,-4.44304 3.76769,-54.27211 0,-58.71515 -1.72261,-2.03136 -10.2448,-3.26191 -22.58999,-3.26191 -12.34519,0 -20.86732,1.23055 -22.58993,3.26191 -3.76769,4.44304 -3.76769,54.27211 0,58.71515 1.72261,2.03136 10.24474,3.26191 22.58993,3.26191 12.34519,0 20.86738,-1.23055 22.58999,-3.26191 z m 91.26578,-1.03784 c 2.62345,-8.0622 1.5285,-54.26283 -1.36692,-57.67731 -1.69611,-2.00012 -9.9887,-3.26191 -21.43744,-3.26191 -11.44869,0 -19.74128,1.26179 -21.4374,3.26191 -2.95305,3.48242 -4.04335,56.8463 -1.2293,60.16482 0.84504,0.99679 11.10714,1.81224 22.80436,1.81224 17.2668,0 21.53077,-0.80895 22.6667,-4.29975 z m 91.21694,-0.9582 c 3.9615,-8.72927 3.03095,-50.67769 -1.23603,-55.7095 -4.52282,-5.3333 -39.97245,-6.14091 -44.3238,-1.00961 -1.76734,2.08411 -2.76611,12.68545 -2.76611,29.35758 0,16.67212 0.99877,27.27346 2.76611,29.35757 1.73066,2.04086 10.32937,3.26191 22.96985,3.26191 17.61577,0 20.50936,-0.67356 22.58998,-5.25795 z m 89.51895,1.99604 c 3.45649,-4.07607 3.75919,-49.27315 0.37992,-56.71911 -2.04924,-4.51586 -4.95113,-5.25795 -20.55736,-5.25795 -26.67116,0 -25.4635,-1.5394 -25.4635,32.4572 0,16.03656 0.69151,29.97296 1.5368,30.96953 2.77926,3.27769 41.16538,2.01585 44.10414,-1.44967 z m 89.89891,0 c 3.7677,-4.44304 3.7677,-54.27211 0,-58.71515 -2.8835,-3.40032 -35.2936,-4.64445 -41.9948,-1.61196 -3.0114,1.36268 -3.6462,6.72727 -3.6462,30.80725 0,16.03656 0.6915,29.97296 1.5368,30.96953 2.7793,3.27769 41.1654,2.01585 44.1042,-1.44967 z M 696.3396,675.14446 c 4.55491,-5.37134 5.25423,-52.51906 0.85612,-57.70553 -3.73586,-4.40558 -41.44406,-4.40558 -45.17992,0 -3.76769,4.44304 -3.76769,54.27205 0,58.7151 4.3513,5.13132 39.80098,4.32371 44.3238,-1.00957 z m 362.7567,1.00957 c 4.1425,-4.88504 3.7497,-54.91224 -0.4636,-59.03559 -2.0674,-2.02352 -10.5705,-2.87708 -23.6273,-2.37171 l -20.3976,0.78937 -0.6615,28.35832 c -0.3638,15.59704 -0.1383,29.96999 0.5039,31.93994 1.552,4.76897 40.6357,5.04868 44.6461,0.31967 z M 840.85136,662.65334 c -17.74721,-3.32309 -30.68921,-10.86828 -44.19386,-25.76476 -20.39666,-22.49851 -28.04104,-43.96486 -27.92651,-78.42138 0.11527,-34.42883 15.03043,-67.14727 38.7176,-84.92765 56.86775,-42.68723 131.13873,0.37625 136.17858,78.95852 4.38709,68.40718 -44.70876,121.02846 -102.77581,110.15527 z m 31.51967,-65.34422 0.6791,-18.22724 15.45661,-0.8008 15.45637,-0.80107 0.71435,-14.86799 c 0.44004,-9.16064 2.04838,-16.35833 -0.7947,-19.52541 -2.84308,-3.16709 -10.13759,-2.30356 -18.80097,-2.30356 l -12.23753,0 0,-16.21408 c 0,-9.27224 1.93782,-16.9083 -0.62714,-20.05075 -2.56497,-3.14244 -9.63273,-1.79126 -17.20118,-1.79126 -6.00743,0 -12.22887,-0.36848 -14.33778,2.88619 -2.10891,3.25468 -0.10528,10.13252 -0.10528,19.40382 l 0,15.76608 -12.23754,0 c -8.66338,0 -16.82811,-0.86353 -19.67119,2.30356 -2.84308,3.16708 -0.3646,10.36478 0.0755,19.52541 l 0.71435,14.86799 15.55942,0.8038 15.55943,0.80381 0,17.09152 c 0,9.40041 0.7353,17.95897 1.63432,19.01882 0.89877,1.06011 7.90047,1.56983 15.55942,1.13272 l 13.9251,-0.79458 z"
       style="fill:#000000" />
  </g>
</svg>
